#N canvas 597 437 706 348 10;
#X obj 22 23 vsl 15 128 0 1 0 0 empty empty input 0 -9 0 10 -262144
-1 -1 0 1;
#X obj 403 25 vsl 15 128 0 1 0 0 empty empty empty 0 -9 0 10 -262144
-1 -1 0 1;
#X floatatom 403 172 5 0 0 0 - - -, f 5;
#X obj 194 232 f, f 1;
#X obj 79 13 inlet;
#X obj 356 172 outlet;
#X obj 124 59 - \$1;
#X floatatom 128 83 5 0 0 0 total_offset - -, f 5;
#X obj 215 23 loadbang;
#X obj 215 59 metro 100;
#X obj 178 81 f \$2;
#X floatatom 176 129 5 0 0 0 - - -, f 5;
#X obj 177 107 / 100;
#X obj 164 148 /;
#X floatatom 79 201 5 0 0 0 increment - -, f 5;
#X obj 174 18 bng 15 250 50 0 empty empty empty 17 7 0 10 -262144 -1
-1;
#X obj 207 199 t b f;
#X obj 208 175 f;
#X obj 224 259 -;
#X obj 220 149 spigot;
#X obj 130 215 - \$1;
#X obj 60 151 delay;
#X obj 79 35 t;
#X msg 60 125 stop \, \$1;
#X obj 60 98 f \$3;
#X msg 246 110 1;
#X msg 293 110 0;
#X obj 44 273 expr abs($f1) < abs($f2);
#X obj 292 163 i;
#X obj 94 303 sel 1;
#X floatatom 80 227 5 0 0 0 current_error - -, f 5;
#X obj 241 294 t;
#X obj 297 255 delay 100;
#X obj 295 291 f \$1;
#X text 469 114 \$1 - desired value \; \$2 - time to recenter \; \$3
- delay before starting;
#X connect 1 0 2 0;
#X connect 1 0 5 0;
#X connect 3 0 18 0;
#X connect 3 0 20 0;
#X connect 3 0 1 0;
#X connect 4 0 0 0;
#X connect 4 0 6 0;
#X connect 4 0 3 0;
#X connect 4 0 22 0;
#X connect 6 0 7 0;
#X connect 7 0 13 0;
#X connect 8 0 9 0;
#X connect 8 0 10 0;
#X connect 8 0 33 0;
#X connect 9 0 19 0;
#X connect 10 0 12 0;
#X connect 11 0 13 1;
#X connect 12 0 11 0;
#X connect 13 0 14 0;
#X connect 13 0 17 1;
#X connect 13 0 27 1;
#X connect 15 0 10 0;
#X connect 15 0 9 0;
#X connect 16 0 3 0;
#X connect 16 1 18 1;
#X connect 17 0 16 0;
#X connect 18 0 3 1;
#X connect 19 0 17 0;
#X connect 20 0 30 0;
#X connect 20 0 27 0;
#X connect 21 0 25 0;
#X connect 22 0 24 0;
#X connect 22 0 26 0;
#X connect 23 0 21 0;
#X connect 24 0 23 0;
#X connect 25 0 28 0;
#X connect 26 0 28 0;
#X connect 27 0 29 0;
#X connect 28 0 19 1;
#X connect 29 0 31 0;
#X connect 31 0 26 0;
#X connect 31 0 32 0;
#X connect 32 0 33 0;
#X connect 33 0 1 0;
#X coords 0 0 1 1 106 137 0;
