#N canvas 557 110 450 402 10;
#X obj 156 -44 tgl 15 0 empty empty empty 17 7 0 10 -262144 -1 -1 0
1;
#X obj 137 1 sel 0 1;
#X msg 119 52 close;
#X obj 151 125 tof/from_ascii_code 10;
#X obj 170 27 operating_system;
#X obj 170 50 select macos;
#X obj 199 -52 loadbang;
#X obj 142 288 outlet;
#X msg 199 -30 1;
#X obj 143 264 / 1023;
#X obj 151 99 comport 1 57600;
#X obj 99 -43 inlet;
#X obj 151 152 unpack s f f f f f f s;
#X obj 68 173 sel cat;
#X obj 335 169 sel meow;
#X obj 142 213 f;
#X obj 143 240 f;
#X obj 187 287 outlet;
#X obj 188 263 / 1023;
#X obj 187 212 f;
#X obj 188 239 f;
#X obj 232 285 outlet;
#X obj 233 262 / 1023;
#X obj 232 211 f;
#X obj 233 238 f;
#X obj 276 285 outlet;
#X obj 277 261 / 1023;
#X obj 276 210 f;
#X obj 277 237 f;
#X msg 170 73 devicename /dev/cu.usbmodem14131;
#X connect 0 0 1 0;
#X connect 1 0 2 0;
#X connect 1 1 4 0;
#X connect 2 0 10 0;
#X connect 3 0 12 0;
#X connect 4 0 5 0;
#X connect 5 0 29 0;
#X connect 6 0 8 0;
#X connect 8 0 1 0;
#X connect 9 0 7 0;
#X connect 10 0 3 0;
#X connect 11 0 1 0;
#X connect 12 0 13 0;
#X connect 12 1 15 1;
#X connect 12 2 19 1;
#X connect 12 3 23 1;
#X connect 12 4 27 1;
#X connect 12 7 14 0;
#X connect 13 0 15 0;
#X connect 13 0 19 0;
#X connect 13 0 23 0;
#X connect 13 1 27 0;
#X connect 14 0 16 0;
#X connect 14 0 20 0;
#X connect 14 0 24 0;
#X connect 14 0 28 0;
#X connect 15 0 16 1;
#X connect 16 0 9 0;
#X connect 18 0 17 0;
#X connect 19 0 20 1;
#X connect 20 0 18 0;
#X connect 22 0 21 0;
#X connect 23 0 24 1;
#X connect 24 0 22 0;
#X connect 26 0 25 0;
#X connect 27 0 28 1;
#X connect 28 0 26 0;
#X connect 29 0 10 0;
