#N canvas 131 227 522 586 10;
#X obj 23 38 inlet~;
#X obj 139 47 inlet;
#X obj 23 482 outlet~;
#X obj 81 482 outlet~;
#X text 30 502 left;
#X text 84 502 right;
#X text 130 528 (C) Copyright 2004 Hans-Christoph Steiner;
#X text 234 544 released under the GNU GPL;
#X obj 107 27 loadbang;
#X msg 107 47 0.5;
#X obj 337 171 / 2;
#X text 10 17 [gogins_pan~];
#X obj 368 93 loadbang;
#X obj 369 313 expr sqrt(2)/2;
#X obj 196 155 trigger float float;
#X obj 106 387 *;
#X obj 208 388 *;
#X obj 140 190 *;
#X obj 140 211 -;
#X obj 140 238 trigger float float;
#X obj 140 263 cos;
#X obj 268 262 sin;
#X text 101 456 the algorithm comes from Michael Gogins on the Csound
list;
#X obj 207 326 +;
#X obj 107 324 -;
#X obj 139 74 clip 0 1;
#X obj 23 443 pan/pan_core~;
#X msg 199 117 3.14159;
#X obj 220 81 loadbang;
#X connect 0 0 26 0;
#X connect 1 0 25 0;
#X connect 8 0 9 0;
#X connect 9 0 25 0;
#X connect 10 0 18 1;
#X connect 12 0 13 0;
#X connect 13 0 16 1;
#X connect 13 0 15 1;
#X connect 14 0 17 1;
#X connect 14 1 10 0;
#X connect 15 0 26 1;
#X connect 16 0 26 2;
#X connect 17 0 18 0;
#X connect 18 0 19 0;
#X connect 19 0 20 0;
#X connect 19 1 21 0;
#X connect 20 0 23 0;
#X connect 20 0 24 0;
#X connect 21 0 23 1;
#X connect 21 0 24 1;
#X connect 23 0 16 0;
#X connect 24 0 15 0;
#X connect 25 0 17 0;
#X connect 26 0 2 0;
#X connect 26 1 3 0;
#X connect 27 0 14 0;
#X connect 28 0 27 0;
