#N canvas 10 183 831 542 10;
#X floatatom 11 183 5 0 0 0 - - -, f 5;
#X obj 11 5 tgl 15 0 empty empty empty 17 7 0 10 -262144 -1 -1 0 1
;
#X obj 11 25 duino;
#X obj 323 117 metro 1000;
#X obj 323 94 loadbang;
#X floatatom 242 199 5 0 0 0 intensity - -, f 5;
#X msg 86 140 1;
#X obj 11 118 smoother 0.05;
#X obj 11 162 acp 0.5 1000 0;
#X obj 290 174 baccum 0 600;
#X obj 289 199 player~;
#X obj 361 142 tgl 15 0 empty empty empty 17 7 0 10 -262144 -1 -1 1
1;
#X obj 278 479 line~;
#X msg 281 451 \$1 20;
#X obj 324 454 vsl 12 81 0.001 0.1 1 0 empty empty front -17 -9 0 10
-262144 -1 -1 0 1;
#X obj 260 503 *~;
#X obj 289 503 *~;
#X obj 260 526 dac~ 1 2;
#X obj 362 479 line~;
#X msg 365 451 \$1 20;
#X obj 407 451 vsl 12 81 0.001 0.1 1 0 empty empty rear -13 -9 0 10
-262144 -1 -1 0 1;
#X obj 344 503 *~;
#X obj 373 503 *~;
#X obj 343 526 dac~ 3 4;
#X msg 323 139 -1;
#X connect 1 0 2 0;
#X connect 2 0 7 0;
#X connect 3 0 24 0;
#X connect 4 0 3 0;
#X connect 6 0 9 0;
#X connect 7 0 8 0;
#X connect 7 1 6 0;
#X connect 8 0 0 0;
#X connect 9 0 5 0;
#X connect 9 0 10 0;
#X connect 10 0 15 0;
#X connect 10 0 21 0;
#X connect 10 1 16 0;
#X connect 10 1 22 0;
#X connect 11 0 10 1;
#X connect 12 0 16 1;
#X connect 12 0 15 1;
#X connect 13 0 12 0;
#X connect 14 0 13 0;
#X connect 15 0 17 0;
#X connect 16 0 17 1;
#X connect 18 0 22 1;
#X connect 18 0 21 1;
#X connect 19 0 18 0;
#X connect 20 0 19 0;
#X connect 21 0 23 0;
#X connect 22 0 23 1;
#X connect 24 0 9 0;
