#N canvas 10 108 536 643 10;
#X obj 11 5 tgl 15 0 empty empty empty 17 7 0 10 -262144 -1 -1 1 1
;
#X obj 11 25 duino;
#X obj 324 92 metro 1000;
#X obj 324 19 loadbang;
#X obj 291 149 baccum 0 600;
#X obj 290 174 player~;
#X obj 356 115 tgl 15 0 empty empty empty 17 7 0 10 -262144 -1 -1 1
1;
#X obj 293 540 line~;
#X msg 296 512 \$1 20;
#X obj 341 519 vsl 12 81 0.001 0.1 1 0 empty empty front -17 -9 0 10
-262144 -1 -1 5204 1;
#X obj 275 564 *~;
#X obj 304 564 *~;
#X obj 275 587 dac~ 1 2;
#X obj 377 540 line~;
#X msg 380 512 \$1 20;
#X obj 422 512 vsl 12 81 0.001 0.1 1 0 empty empty rear -13 -9 0 10
-262144 -1 -1 1908 1;
#X obj 359 564 *~;
#X obj 388 564 *~;
#X obj 358 587 dac~ 3 4;
#X obj 46 303 -;
#X obj 102 240 + 0.001;
#X obj 225 331 gogins_pan_tiger~;
#X obj 44 241 f;
#X obj 57 274 i;
#X obj 12 190 loadbang;
#X obj 41 215 metro 50;
#X obj 351 338 gogins_pan_tiger~;
#X obj 12 165 expr 0.25 * exp(4.6 * $f1);
#X obj 12 141 acp 0.7 10000 10000;
#X obj 253 362 freeverb~;
#X msg 26 96 roomsize \$1;
#X msg 149 332 damping \$1;
#X msg 149 355 wet \$1;
#X obj 12 334 hsl 128 15 0 1 0 0 empty empty empty -2 -8 0 10 -262144
-1 -1 0 1;
#X obj 12 354 hsl 128 15 0 1 0 0 empty empty empty -2 -8 0 10 -262144
-1 -1 0 1;
#X obj 272 488 +~;
#X obj 300 487 +~, f 2;
#X obj 360 485 +~;
#X obj 388 484 +~, f 2;
#X obj 421 417 line~;
#X msg 424 389 \$1 20;
#X obj 466 389 vsl 12 81 0.001 0.1 1 0 empty empty rear\ dry -13 -9
0 10 -262144 -1 -1 4000 1;
#X obj 403 441 *~;
#X obj 432 441 *~;
#X obj 26 53 smoother 0.05;
#X obj 142 425 loadbang;
#X obj 116 481 t b;
#X obj 116 503 delay 1000;
#X msg 116 525 1;
#X obj 72 547 readsf~ 2;
#X msg 72 459 open ../../sounds/purring.aif;
#X obj 162 574 line~;
#X msg 162 553 \$1 20;
#X obj 141 605 *~;
#X obj 170 605 *~;
#X obj 13 398 smoother 0.05;
#X msg 324 114 -1;
#X msg 339 48 1;
#X msg 468 338 0.01;
#X obj 450 300 loadbang;
#X floatatom 238 176 5 0 0 0 - - -, f 5;
#X floatatom 105 96 5 0 0 0 - - -, f 5;
#X floatatom 13 492 5 0 0 0 - - -, f 5;
#X floatatom 124 187 5 0 0 0 - - -, f 5;
#X obj 12 119 smoother 0.05;
#X msg 100 119 5;
#X msg 113 52 5;
#X msg 104 398 10;
#X obj 26 74 acp 0.4 10000 10000;
#X obj 13 441 * 1;
#X obj 13 419 acp 0.1 100000 10000;
#X msg 440 486 0.003;
#X msg 321 461 0.02;
#X connect 0 0 1 0;
#X connect 1 0 64 0;
#X connect 1 1 44 0;
#X connect 1 2 55 0;
#X connect 2 0 56 0;
#X connect 3 0 2 0;
#X connect 3 0 57 0;
#X connect 4 0 5 0;
#X connect 4 0 60 0;
#X connect 5 0 21 0;
#X connect 5 1 26 0;
#X connect 6 0 5 1;
#X connect 7 0 11 1;
#X connect 7 0 10 1;
#X connect 8 0 7 0;
#X connect 9 0 8 0;
#X connect 10 0 12 0;
#X connect 11 0 12 1;
#X connect 13 0 17 1;
#X connect 13 0 16 1;
#X connect 14 0 13 0;
#X connect 15 0 14 0;
#X connect 16 0 18 0;
#X connect 16 0 18 1;
#X connect 19 0 21 1;
#X connect 19 0 26 1;
#X connect 20 0 22 1;
#X connect 21 0 35 0;
#X connect 21 0 29 0;
#X connect 21 1 36 0;
#X connect 21 1 29 1;
#X connect 22 0 20 0;
#X connect 22 0 19 0;
#X connect 22 0 23 0;
#X connect 23 0 19 1;
#X connect 24 0 25 0;
#X connect 25 0 22 0;
#X connect 26 0 42 0;
#X connect 26 1 43 0;
#X connect 27 0 25 1;
#X connect 27 0 63 0;
#X connect 28 0 27 0;
#X connect 29 0 37 1;
#X connect 29 1 38 1;
#X connect 30 0 29 0;
#X connect 31 0 29 0;
#X connect 32 0 29 0;
#X connect 33 0 31 0;
#X connect 34 0 32 0;
#X connect 35 0 10 0;
#X connect 36 0 11 0;
#X connect 37 0 16 0;
#X connect 38 0 17 0;
#X connect 39 0 43 1;
#X connect 39 0 42 1;
#X connect 40 0 39 0;
#X connect 41 0 40 0;
#X connect 42 0 37 0;
#X connect 43 0 38 0;
#X connect 44 0 68 0;
#X connect 44 1 66 0;
#X connect 45 0 50 0;
#X connect 46 0 47 0;
#X connect 47 0 48 0;
#X connect 48 0 49 0;
#X connect 49 0 53 0;
#X connect 49 1 54 0;
#X connect 49 2 50 0;
#X connect 50 0 46 0;
#X connect 50 0 49 0;
#X connect 51 0 54 1;
#X connect 51 0 53 1;
#X connect 52 0 51 0;
#X connect 53 0 35 1;
#X connect 54 0 36 1;
#X connect 55 0 70 0;
#X connect 55 1 67 0;
#X connect 56 0 4 0;
#X connect 57 0 6 0;
#X connect 57 0 0 0;
#X connect 58 0 41 0;
#X connect 59 0 58 0;
#X connect 59 0 72 0;
#X connect 59 0 71 0;
#X connect 64 0 28 0;
#X connect 64 1 65 0;
#X connect 65 0 4 0;
#X connect 66 0 4 0;
#X connect 67 0 4 0;
#X connect 68 0 30 0;
#X connect 68 0 61 0;
#X connect 69 0 52 0;
#X connect 69 0 62 0;
#X connect 70 0 69 0;
#X connect 71 0 15 0;
#X connect 72 0 9 0;
