#N canvas 10 108 831 692 10;
#X floatatom 12 284 5 0 0 0 - - -, f 5;
#X obj 11 5 tgl 15 0 empty empty empty 17 7 0 10 -262144 -1 -1 0 1
;
#X obj 11 25 duino;
#X obj 323 117 metro 1000;
#X obj 323 94 loadbang;
#X floatatom 242 199 5 0 0 0 intensity - -, f 5;
#X msg 86 140 1;
#X obj 11 118 smoother 0.05;
#X obj 290 174 baccum 0 600;
#X obj 289 199 player~;
#X obj 361 142 tgl 15 0 empty empty empty 17 7 0 10 -262144 -1 -1 1
1;
#X obj 288 631 line~;
#X msg 291 603 \$1 20;
#X obj 334 606 vsl 12 81 0.001 0.1 1 0 empty empty front -17 -9 0 10
-262144 -1 -1 0 1;
#X obj 270 655 *~;
#X obj 299 655 *~;
#X obj 270 678 dac~ 1 2;
#X obj 372 631 line~;
#X msg 375 603 \$1 20;
#X obj 417 603 vsl 12 81 0.001 0.1 1 0 empty empty rear -13 -9 0 10
-262144 -1 -1 0 1;
#X obj 354 655 *~;
#X obj 383 655 *~;
#X obj 353 678 dac~ 3 4;
#X msg 323 139 -1;
#X obj 59 349 -;
#X obj 115 286 + 0.001;
#X obj 220 422 gogins_pan_tiger~;
#X obj 57 287 f;
#X obj 70 320 i;
#X obj 25 236 loadbang;
#X obj 54 261 metro 50;
#X obj 295 21 curve_exp;
#X obj 407 33 curve_log;
#X floatatom 85 225 5 0 0 0 - - -, f 5;
#X obj 346 429 gogins_pan_tiger~;
#X obj 21 198 expr 0.25 * exp(4.6 * $f1);
#X obj 11 166 acp 0.7 10000 10000;
#X connect 1 0 2 0;
#X connect 2 0 7 0;
#X connect 3 0 23 0;
#X connect 4 0 3 0;
#X connect 6 0 8 0;
#X connect 7 0 36 0;
#X connect 7 1 6 0;
#X connect 8 0 5 0;
#X connect 8 0 9 0;
#X connect 9 0 26 0;
#X connect 9 1 34 0;
#X connect 10 0 9 1;
#X connect 11 0 15 1;
#X connect 11 0 14 1;
#X connect 12 0 11 0;
#X connect 13 0 12 0;
#X connect 14 0 16 0;
#X connect 15 0 16 1;
#X connect 17 0 21 1;
#X connect 17 0 20 1;
#X connect 18 0 17 0;
#X connect 19 0 18 0;
#X connect 20 0 22 0;
#X connect 20 0 22 1;
#X connect 23 0 8 0;
#X connect 24 0 26 1;
#X connect 24 0 34 1;
#X connect 25 0 27 1;
#X connect 26 0 14 0;
#X connect 26 1 15 0;
#X connect 27 0 25 0;
#X connect 27 0 24 0;
#X connect 27 0 28 0;
#X connect 28 0 24 1;
#X connect 29 0 30 0;
#X connect 30 0 27 0;
#X connect 34 0 20 0;
#X connect 34 1 21 0;
#X connect 35 0 33 0;
#X connect 35 0 30 1;
#X connect 36 0 0 0;
#X connect 36 0 35 0;
