#N canvas 10 82 536 658 10;
#X obj 11 5 tgl 15 0 empty empty empty 17 7 0 10 -262144 -1 -1 1 1
;
#X obj 11 25 duino;
#X obj 324 92 metro 1000;
#X obj 324 19 loadbang;
#X obj 291 149 baccum 0 600;
#X obj 290 174 player~;
#X obj 356 115 tgl 15 0 empty empty empty 17 7 0 10 -262144 -1 -1 1
1;
#X obj 293 540 line~;
#X msg 296 512 \$1 20;
#X obj 339 516 vsl 12 81 0.001 0.4 1 0 empty empty front -17 -9 0 10
-262144 -1 -1 5549 1;
#X obj 275 564 *~;
#X obj 304 564 *~;
#X obj 275 587 dac~ 1 2;
#X obj 423 536 line~;
#X msg 426 509 \$1 20;
#X obj 466 523 vsl 12 81 0.001 0.1 1 0 empty empty rear -13 -9 0 10
-262144 -1 -1 4804 1;
#X obj 395 568 *~;
#X obj 428 567 *~;
#X obj 387 619 dac~ 3 4;
#X obj 46 303 -;
#X obj 102 240 + 0.001;
#X obj 225 331 gogins_pan_tiger~;
#X obj 44 241 f;
#X obj 57 274 i;
#X obj 12 190 loadbang;
#X obj 41 215 metro 50;
#X obj 12 165 expr 0.25 * exp(4.6 * $f1);
#X obj 12 141 acp 0.7 10000 10000;
#X obj 253 359 freeverb~;
#X msg 26 96 roomsize \$1;
#X msg 149 332 damping \$1;
#X msg 149 355 wet \$1;
#X obj 12 334 hsl 128 15 0 1 0 0 empty empty empty -2 -8 0 10 -262144
-1 -1 0 1;
#X obj 12 354 hsl 128 15 0 1 0 0 empty empty empty -2 -8 0 10 -262144
-1 -1 0 1;
#X obj 272 488 +~;
#X obj 300 487 +~, f 2;
#X obj 364 342 line~;
#X msg 367 314 \$1 20;
#X obj 413 311 vsl 12 81 0.001 1 1 0 empty empty rear\ dry -13 -9 0
10 -262144 -1 -1 3236 1;
#X obj 346 366 *~;
#X obj 375 366 *~;
#X obj 26 53 smoother 0.05;
#X obj 142 425 loadbang;
#X obj 116 481 t b;
#X obj 116 503 delay 1000;
#X msg 116 525 1;
#X obj 72 547 readsf~ 2;
#X msg 72 459 open ../../sounds/purring.aif;
#X obj 162 574 line~;
#X msg 162 553 \$1 20;
#X obj 141 605 *~;
#X obj 170 605 *~;
#X obj 13 398 smoother 0.05;
#X msg 324 114 -1;
#X msg 339 48 1;
#X obj 438 213 loadbang;
#X floatatom 238 176 5 0 0 0 - - -, f 5;
#X floatatom 105 96 5 0 0 0 - - -, f 5;
#X floatatom 13 492 5 0 0 0 - - -, f 5;
#X floatatom 124 187 5 0 0 0 - - -, f 5;
#X obj 12 119 smoother 0.05;
#X obj 26 74 acp 0.4 10000 10000;
#X floatatom 317 615 5 0 0 0 - - -, f 5;
#X floatatom 454 612 5 0 0 0 - - -, f 5;
#X floatatom 431 408 5 0 0 0 - - -, f 5;
#X msg 113 52 2;
#X msg 104 398 3;
#X msg 100 119 2;
#X obj 13 419 acp 0.2 100000 10000;
#X obj 13 441 * 0.5;
#X obj 388 595 +~;
#X obj 416 595 +~;
#X msg 321 461 0.1;
#X msg 381 260 0.015;
#X msg 467 486 0.02;
#X obj 139 -6 duino2;
#X obj 139 16 smoother 0.05;
#X obj 153 37 smoother 0.05;
#X obj 169 58 smoother 0.05;
#X obj 183 80 smoother 0.05;
#X msg 152 108 1;
#X obj 199 101 smoother 0.05;
#X connect 0 0 1 0;
#X connect 0 0 75 0;
#X connect 1 0 60 0;
#X connect 1 1 41 0;
#X connect 1 2 52 0;
#X connect 2 0 53 0;
#X connect 3 0 2 0;
#X connect 3 0 54 0;
#X connect 4 0 5 0;
#X connect 4 0 56 0;
#X connect 5 0 21 0;
#X connect 5 1 39 0;
#X connect 5 1 40 0;
#X connect 6 0 5 1;
#X connect 7 0 11 1;
#X connect 7 0 10 1;
#X connect 8 0 7 0;
#X connect 9 0 8 0;
#X connect 9 0 62 0;
#X connect 10 0 12 0;
#X connect 11 0 12 1;
#X connect 13 0 17 1;
#X connect 13 0 16 1;
#X connect 14 0 13 0;
#X connect 15 0 14 0;
#X connect 15 0 63 0;
#X connect 16 0 70 1;
#X connect 17 0 71 1;
#X connect 19 0 21 1;
#X connect 20 0 22 1;
#X connect 21 0 34 0;
#X connect 21 0 28 0;
#X connect 21 1 35 0;
#X connect 21 1 28 1;
#X connect 22 0 20 0;
#X connect 22 0 19 0;
#X connect 22 0 23 0;
#X connect 23 0 19 1;
#X connect 24 0 25 0;
#X connect 25 0 22 0;
#X connect 26 0 25 1;
#X connect 26 0 59 0;
#X connect 27 0 26 0;
#X connect 28 0 16 0;
#X connect 28 1 17 0;
#X connect 29 0 28 0;
#X connect 30 0 28 0;
#X connect 31 0 28 0;
#X connect 32 0 30 0;
#X connect 33 0 31 0;
#X connect 34 0 10 0;
#X connect 35 0 11 0;
#X connect 36 0 40 1;
#X connect 36 0 39 1;
#X connect 37 0 36 0;
#X connect 38 0 37 0;
#X connect 38 0 64 0;
#X connect 39 0 70 0;
#X connect 40 0 71 0;
#X connect 41 0 61 0;
#X connect 41 1 65 0;
#X connect 42 0 47 0;
#X connect 43 0 44 0;
#X connect 44 0 45 0;
#X connect 45 0 46 0;
#X connect 46 0 50 0;
#X connect 46 1 51 0;
#X connect 46 2 47 0;
#X connect 47 0 43 0;
#X connect 47 0 46 0;
#X connect 48 0 51 1;
#X connect 48 0 50 1;
#X connect 49 0 48 0;
#X connect 50 0 34 1;
#X connect 51 0 35 1;
#X connect 52 0 68 0;
#X connect 52 1 66 0;
#X connect 53 0 4 0;
#X connect 54 0 6 0;
#X connect 54 0 0 0;
#X connect 55 0 73 0;
#X connect 55 0 72 0;
#X connect 55 0 74 0;
#X connect 60 0 27 0;
#X connect 60 1 67 0;
#X connect 61 0 29 0;
#X connect 61 0 57 0;
#X connect 65 0 4 0;
#X connect 66 0 4 0;
#X connect 67 0 4 0;
#X connect 68 0 69 0;
#X connect 69 0 49 0;
#X connect 69 0 58 0;
#X connect 70 0 18 0;
#X connect 71 0 18 1;
#X connect 72 0 9 0;
#X connect 73 0 38 0;
#X connect 74 0 15 0;
#X connect 75 0 76 0;
#X connect 75 1 77 0;
#X connect 75 2 78 0;
#X connect 75 3 79 0;
#X connect 75 4 81 0;
#X connect 76 0 80 0;
#X connect 77 0 80 0;
#X connect 78 0 80 0;
#X connect 79 0 80 0;
#X connect 80 0 4 0;
#X connect 81 0 80 0;
