#N canvas 0 85 831 542 10;
#X floatatom 11 183 5 0 0 0 - - -, f 5;
#X obj 11 5 tgl 15 0 empty empty empty 17 7 0 10 -262144 -1 -1 0 1
;
#X obj 11 25 duino;
#X obj 323 117 metro 1000;
#X obj 323 94 loadbang;
#X floatatom 193 195 5 0 0 0 - - -, f 5;
#X msg 86 140 1;
#X obj 11 118 smoother 0.05;
#X obj 11 162 acp 0.5 1000 0;
#X obj 290 174 baccum 0 600;
#X msg 323 139 -1;
#X obj 445 174 bng 15 250 50 0 empty empty play_sound 17 7 0 10 -262144
-1 -1;
#X floatatom 278 242 5 0 0 0 - - -, f 5;
#X obj 325 242 select 1;
#X obj 445 243 select 2;
#X obj 407 91 bng 15 250 50 0 empty empty rescan_sounds 17 7 0 10 -262144
-1 -1;
#X obj 203 409 readsf~ 2;
#X obj 277 333 t b;
#X obj 277 355 delay 1000;
#X msg 277 377 1;
#X obj 204 509 dac~;
#X obj 682 248 select 3;
#X obj 682 270 delay 10000;
#X msg 202 304 open \$1;
#X obj 320 438 delay 3000;
#X obj 325 208 sound_type;
#X obj 445 271 sound_chooser ../../sounds/songs/*.aif;
#X obj 202 272 sound_chooser ../../sounds/creeps/*.aif;
#X connect 1 0 2 0;
#X connect 2 0 7 0;
#X connect 3 0 10 0;
#X connect 4 0 3 0;
#X connect 6 0 9 0;
#X connect 7 0 8 0;
#X connect 7 1 6 0;
#X connect 8 0 0 0;
#X connect 9 0 5 0;
#X connect 9 0 25 1;
#X connect 10 0 9 0;
#X connect 11 0 25 0;
#X connect 13 0 27 0;
#X connect 14 0 26 0;
#X connect 15 0 26 1;
#X connect 15 0 27 1;
#X connect 16 0 20 0;
#X connect 16 1 20 1;
#X connect 16 2 24 0;
#X connect 17 0 18 0;
#X connect 18 0 19 0;
#X connect 19 0 16 0;
#X connect 21 0 22 0;
#X connect 22 0 11 0;
#X connect 23 0 16 0;
#X connect 23 0 17 0;
#X connect 24 0 11 0;
#X connect 25 0 12 0;
#X connect 25 0 13 0;
#X connect 25 0 14 0;
#X connect 25 0 21 0;
#X connect 26 0 23 0;
#X connect 27 0 23 0;
