#N canvas 0 85 831 542 10;
#X floatatom 11 183 5 0 0 0 - - -, f 5;
#X obj 11 5 tgl 15 0 empty empty empty 17 7 0 10 -262144 -1 -1 0 1
;
#X obj 11 25 duino;
#X obj 323 117 metro 1000;
#X obj 323 94 loadbang;
#X floatatom 242 199 5 0 0 0 intensity - -, f 5;
#X msg 86 140 1;
#X obj 11 118 smoother 0.05;
#X obj 11 162 acp 0.5 1000 0;
#X obj 290 174 baccum 0 600;
#X msg 323 139 -1;
#X obj 289 199 player~;
#X obj 361 142 tgl 15 0 empty empty empty 17 7 0 10 -262144 -1 -1 0
1;
#X obj 259 515 dac~;
#X obj 274 466 line~;
#X msg 274 443 \$1 20;
#X obj 319 435 vsl 22 81 0 1 0 0 empty empty empty 0 -9 0 10 -262144
-1 -1 0 1;
#X obj 259 492 *~;
#X obj 288 492 *~;
#X connect 1 0 2 0;
#X connect 2 0 7 0;
#X connect 3 0 10 0;
#X connect 4 0 3 0;
#X connect 6 0 9 0;
#X connect 7 0 8 0;
#X connect 7 1 6 0;
#X connect 8 0 0 0;
#X connect 9 0 5 0;
#X connect 9 0 11 0;
#X connect 10 0 9 0;
#X connect 11 0 17 0;
#X connect 11 1 18 0;
#X connect 12 0 11 1;
#X connect 14 0 18 1;
#X connect 14 0 17 1;
#X connect 15 0 14 0;
#X connect 16 0 15 0;
#X connect 17 0 13 0;
#X connect 18 0 13 1;
