#N canvas 313 370 386 457 10;
#X obj 72 206 list;
#X obj 72 228 t a;
#X obj 38 252 list;
#X obj 78 301 list length;
#X obj 57 332 random;
#X obj 38 274 t a b a;
#X obj 39 365 list split;
#X obj 72 121 t a b;
#X obj 72 76 loadbang;
#X obj 72 98 symbol \$1;
#X obj 39 42 inlet;
#X obj 84 42 inlet;
#X obj 67 411 outlet;
#X text 141 49 Outputs a randomly chosen filename based on path \$1
\; First inlet performs this action \; Second inlet rescans the path
, f 36;
#X obj 38 206 t b;
#X obj 10 140 bng 15 250 50 0 empty empty empty 17 7 0 10 -262144 -1
-1;
#X obj 72 156 hcs/folder_list;
#X obj 110 246 timer;
#X msg 110 272 seed \$1;
#X obj 142 363 print;
#X connect 0 0 1 0;
#X connect 1 0 0 1;
#X connect 1 0 2 1;
#X connect 2 0 5 0;
#X connect 3 0 4 1;
#X connect 4 0 6 1;
#X connect 4 0 19 0;
#X connect 5 0 6 0;
#X connect 5 1 4 0;
#X connect 5 2 3 0;
#X connect 6 1 12 0;
#X connect 7 0 16 0;
#X connect 7 1 0 1;
#X connect 8 0 9 0;
#X connect 8 0 17 0;
#X connect 9 0 7 0;
#X connect 10 0 14 0;
#X connect 11 0 9 0;
#X connect 14 0 2 0;
#X connect 15 0 14 0;
#X connect 16 0 0 0;
#X connect 17 0 18 0;
#X connect 18 0 4 0;
